<?xml version="1.0" encoding="utf-8"?>
<!-- Generator: Adobe Illustrator 15.1.0, SVG Export Plug-In . SVG Version: 6.00 Build 0)  -->
<!DOCTYPE svg PUBLIC "-//W3C//DTD SVG 1.1//EN" "http://www.w3.org/Graphics/SVG/1.1/DTD/svg11.dtd">
<svg version="1.1" id="Layer_1" xmlns="http://www.w3.org/2000/svg" xmlns:xlink="http://www.w3.org/1999/xlink" x="0px" y="0px"
	 width="36.582px" height="36.611px" viewBox="0.123 0.949 36.582 36.611" enable-background="new 0.123 0.949 36.582 36.611"
	 xml:space="preserve">
<g>
	<path fill="#2196F3" d="M25.556,17.863c-0.388-0.39-0.38-1.021,0.018-1.4l10.822-10.34c0.397-0.38,0.414-1.018,0.036-1.418
		l-3.261-3.454c-0.378-0.4-0.999-0.403-1.382-0.008L21.183,12.21c-0.383,0.395-1.015,0.402-1.405,0.015l-6.116-6.063
		c-0.391-0.387-1.03-0.388-1.422-0.002L9.956,8.41C9.564,8.796,9.563,9.429,9.953,9.816l18.277,18.15
		c0.391,0.388,0.993,0.355,1.34-0.071l2.045-2.522c0.347-0.427,0.313-1.096-0.075-1.485L25.556,17.863z"/>
</g>
<g>
	<path fill="#2196F3" d="M21.173,37.206c-0.368,0.409-1.028,0.473-1.468,0.141l-9.142-7.496c-0.427-0.348-1.07-0.972-1.43-1.388
		L0.36,18.347c-0.354-0.421-0.305-1.063,0.109-1.426l7.205-6.331c0.414-0.363,1.071-0.343,1.461,0.044l18.277,18.151
		c0.391,0.388,0.409,1.039,0.041,1.448L21.173,37.206z"/>
</g>
</svg>
