<?xml version="1.0" encoding="utf-8"?>
<!-- Generator: Adobe Illustrator 15.1.0, SVG Export Plug-In . SVG Version: 6.00 Build 0)  -->
<!DOCTYPE svg PUBLIC "-//W3C//DTD SVG 1.1//EN" "http://www.w3.org/Graphics/SVG/1.1/DTD/svg11.dtd">
<svg version="1.1" id="Layer_1" xmlns="http://www.w3.org/2000/svg" xmlns:xlink="http://www.w3.org/1999/xlink" x="0px" y="0px"
	 width="39.5px" height="29.8px" viewBox="0 0 39.5 29.8" enable-background="new 0 0 39.5 29.8" xml:space="preserve">
<path fill="#2196F3" d="M39,3.2l-2.7-2.7c-0.6-0.6-1.6-0.6-2.2,0l0,0L13.9,20.6L5.4,12c-0.6-0.6-1.6-0.6-2.2,0l0,0l-2.7,2.7
	c-0.6,0.6-0.6,1.6,0,2.2l0,0l9.7,9.7l0,0l2.7,2.7c0.6,0.6,1.6,0.6,2.2,0l0,0L39,5.4C39.6,4.8,39.6,3.8,39,3.2z"/>
</svg>
